<?xml version="1.0" standalone="no"?>
<!DOCTYPE svg PUBLIC "-//W3C//DTD SVG 20010904//EN"
 "http://www.w3.org/TR/2001/REC-SVG-20010904/DTD/svg10.dtd">
<svg version="1.0" xmlns="http://www.w3.org/2000/svg"
 width="296.000000pt" height="170.000000pt" viewBox="0 0 296.000000 170.000000"
 preserveAspectRatio="xMidYMid meet">
<metadata>
Created by potrace 1.16, written by Peter Selinger 2001-2019
</metadata>
<g transform="translate(0.000000,170.000000) scale(0.100000,-0.100000)"
fill="#000000" stroke="none">
<path d="M830 1523 c-31 -12 -60 -47 -60 -75 0 -15 7 -72 15 -126 58 -387 284
-741 610 -957 205 -135 472 -225 667 -225 110 0 118 17 118 249 0 130 -3 171
-15 188 -12 17 -36 24 -127 38 -62 9 -135 26 -163 36 -27 10 -59 19 -70 19
-12 0 -53 -33 -100 -80 -44 -44 -87 -80 -95 -80 -24 0 -151 87 -230 159 -69
61 -194 208 -220 257 -13 23 -9 28 63 103 86 88 102 117 86 159 -21 54 -69
243 -69 270 0 15 -7 38 -16 50 -15 21 -20 22 -197 21 -100 0 -189 -3 -197 -6z"/>
</g>
</svg>
